<svg xmlns="http://www.w3.org/2000/svg" viewBox="0 0 200 200" role="img" aria-labelledby="avTitle">
  <title id="avTitle">Avatar redes sociales</title>
  <circle cx="100" cy="100" r="100" fill="#121212"/>
  <g transform="translate(28,22) scale(0.72)">
    <path d="M100 8 L192 168 A14 14 0 0 1 180 188 L20 188 A14 14 0 0 1 8 168 Z" fill="#FFFFFF"/>
    <g clip-path="url(#c4)">
      <clipPath id="c4"><path d="M100 8 L192 168 A14 14 0 0 1 180 188 L20 188 A14 14 0 0 1 8 168 Z"/></clipPath>
      <rect x="86" y="70" width="20" height="62" rx="8" fill="#121212"/>
      <circle cx="96" cy="152" r="13" fill="#121212"/>
      <path d="M104 62 C120 48 140 46 158 54 C150 64 150 78 158 88 C140 96 120 94 104 80 Z" fill="#C9A227"/>
      <rect x="98" y="76" width="10" height="20" rx="3" fill="#C9A227"/>
      <circle cx="96" cy="152" r="8" fill="#C9A227"/>
    </g>
  </g>
</svg>
